<svg xmlns="http://www.w3.org/2000/svg" width="1600" height="900" viewBox="0 0 1600 900" role="img" aria-labelledby="title desc">
<title id="title">Skill Quality Gate workflow</title>
<desc id="desc">From your first line to launch day — four passes, and you'll know if it's any good.</desc>

<defs>
  <radialGradient id="aura" cx="100%" cy="0%" r="135%">
    <stop offset="0%" stop-color="#DFEAF7"/>
    <stop offset="26%" stop-color="#ECF2FB"/>
    <stop offset="55%" stop-color="#F6F9FC"/>
    <stop offset="100%" stop-color="#FBFBFB"/>
  </radialGradient>
  <filter id="cardShadow" x="-10%" y="-10%" width="120%" height="130%">
    <feDropShadow dx="0" dy="2" stdDeviation="2" flood-color="#101722" flood-opacity=".04"/>
    <feDropShadow dx="0" dy="14" stdDeviation="17" flood-color="#101722" flood-opacity=".07"/>
  </filter>
  <marker id="arrow" viewBox="0 0 10 10" refX="9" refY="5" markerWidth="7" markerHeight="7" orient="auto-start-reverse">
    <path d="M 0 0 L 10 5 L 0 10 z" fill="#5C626B"/>
  </marker>
</defs>

<rect width="1600" height="900" fill="url(#aura)"/>
<rect x="64" y="64" width="1472" height="772" rx="32" fill="#FFFFFF" filter="url(#cardShadow)"/>

<g transform="translate(106 81) scale(.30)">
  <path fill="#101722" d="M37 115V68C37 46 55 28 76 28H153C159 28 162 32 162 38V113C162 135 145 151 124 151H115C111 151 108 148 108 144V130C108 126 111 123 115 123H123C129 123 132 119 132 113V63C132 59 129 56 125 56H79C72 56 67 61 67 68V113C67 116 65 117 62 117H39C38 117 37 116 37 115Z"/>
  <circle cx="87.5" cy="137.5" r="14.99" fill="#0071E3"/>
</g>

<text x="180" y="122" font-family="'Avenir Next','Inter',Arial,sans-serif" font-weight="600" font-size="22" fill="#101722">Deep<tspan fill="#0071E3">Wheel</tspan></text>
<text x="1494" y="118" text-anchor="end" font-family="'Avenir Next','Inter','Helvetica Neue',Arial,sans-serif" font-weight="600" font-size="13" fill="#5C626B" letter-spacing="2.2">QUALITY GATE WORKFLOW</text>
<line x1="106" y1="158" x2="1494" y2="158" stroke="#E1E6EE" stroke-width="1"/>

<text x="112" y="240" font-family="'Avenir Next','Inter','Helvetica Neue',Arial,sans-serif" font-weight="600" font-size="30" fill="#101722" letter-spacing="-.5">From your first line to launch day — four passes, and you'll know if it's any good.</text>

<text x="112" y="322" font-family="'Avenir Next','Inter','Helvetica Neue',Arial,sans-serif" font-weight="700" font-size="14" fill="#5C626B" letter-spacing="2">TARGET</text>
<rect x="112" y="342" width="360" height="260" rx="20" fill="#FFFFFF" stroke="#E1E6EE" stroke-width="1.5"/>
<text x="156" y="382" font-family="'Avenir Next','Inter','Helvetica Neue',Arial,sans-serif" font-weight="400" font-size="20" fill="#42474F">SKILL.md · References · Agents</text><text x="156" y="440" font-family="'Avenir Next','Inter','Helvetica Neue',Arial,sans-serif" font-weight="400" font-size="20" fill="#42474F">README · Docs · Examples</text><text x="156" y="510" font-family="'Avenir Next','Inter','Helvetica Neue',Arial,sans-serif" font-weight="400" font-size="20" fill="#42474F">Git · GitHub · Install · Intro</text>

<path d="M 472 472 C 505 472 512 472 540 472" fill="none" stroke="#5C626B" stroke-width="2" marker-end="url(#arrow)"/>

<rect x="548" y="306" width="548" height="334" rx="26" fill="#FFFFFF" stroke="#E1E6EE" stroke-width="1.5"/>
<rect x="548" y="306" width="548" height="66" rx="26" fill="#0071E3"/>
<rect x="548" y="346" width="548" height="26" fill="#0071E3"/>
<text x="592" y="349" font-family="'Avenir Next','Inter','Helvetica Neue',Arial,sans-serif" font-weight="700" font-size="15" fill="#FFFFFF" letter-spacing="2.4">QUALITY GATE</text>
<text x="592" y="420" font-family="'Avenir Next','Inter','Helvetica Neue',Arial,sans-serif" font-weight="600" font-size="22" fill="#101722"><tspan fill="#5C626B">01</tspan><tspan dx="28">Set the goal, grab the 'good Skill' map</tspan></text><text x="592" y="478" font-family="'Avenir Next','Inter','Helvetica Neue',Arial,sans-serif" font-weight="600" font-size="22" fill="#101722"><tspan fill="#5C626B">02</tspan><tspan dx="28">One check-up: install·token·trap·ship</tspan></text><text x="592" y="536" font-family="'Avenir Next','Inter','Helvetica Neue',Arial,sans-serif" font-weight="600" font-size="22" fill="#101722"><tspan fill="#5C626B">03</tspan><tspan dx="28">Get the list, ranked by fix-first</tspan></text><text x="592" y="594" font-family="'Avenir Next','Inter','Helvetica Neue',Arial,sans-serif" font-weight="600" font-size="22" fill="#101722"><tspan fill="#5C626B">04</tspan><tspan dx="28">Fix, pass, paste into PR as proof</tspan></text>

<path d="M 1096 472 C 1130 472 1140 472 1168 472" fill="none" stroke="#5C626B" stroke-width="2" marker-end="url(#arrow)"/>

<path d="M 1176 342 H 1376 L 1436 402 V 602 H 1176 Z" fill="#FFFFFF" stroke="#E1E6EE" stroke-width="1.5"/>
<path d="M 1376 342 V 402 H 1436" fill="none" stroke="#E1E6EE" stroke-width="1.5"/>
<text x="1306" y="322" text-anchor="middle" font-family="'Avenir Next','Inter','Helvetica Neue',Arial,sans-serif" font-weight="700" font-size="14" fill="#5C626B" letter-spacing="1.6">AUDIT REPORT</text>
<text x="1250" y="404" text-anchor="middle" font-family="'Avenir Next','Inter','Helvetica Neue',Arial,sans-serif" font-weight="600" font-size="21" fill="#101722">Ship / fix</text><text x="1250" y="457" text-anchor="middle" font-family="'Avenir Next','Inter','Helvetica Neue',Arial,sans-serif" font-weight="400" font-size="21" fill="#42474F">Fix-first order</text><text x="1250" y="510" text-anchor="middle" font-family="'Avenir Next','Inter','Helvetica Neue',Arial,sans-serif" font-weight="400" font-size="21" fill="#42474F">Scorecard</text><text x="1250" y="563" text-anchor="middle" font-family="'Avenir Next','Inter','Helvetica Neue',Arial,sans-serif" font-weight="400" font-size="21" fill="#42474F">Paste to PR</text>

<line x1="112" y1="688" x2="1494" y2="688" stroke="#E1E6EE" stroke-width="1.5"/>
<text x="112" y="738" font-family="'Avenir Next','Inter','Helvetica Neue',Arial,sans-serif" font-weight="700" font-size="14" fill="#5C626B" letter-spacing="1.6">MATCH   ·   DRIFT   ·   NOT PUSHED   ·   PR OPEN   ·   VISUAL ASSET STALE</text>
<text x="1494" y="790" text-anchor="end" font-family="'Avenir Next','Inter','Helvetica Neue',Arial,sans-serif" font-weight="400" font-size="16" fill="#5C626B">Read-only checks find issues; the fix-list comes ranked for you.</text>
</svg>
