<svg xmlns="http://www.w3.org/2000/svg" width="1600" height="900" viewBox="0 0 1600 900" role="img" aria-labelledby="title desc">
<title id="title">DeepWheel Skill 质量门禁 GitHub 中文介绍</title>
<desc id="desc">输出有证据的判定和修复计划，不自动发布。</desc>

<defs>
  <radialGradient id="aura" cx="100%" cy="0%" r="135%">
    <stop offset="0%" stop-color="#DFEAF7"/>
    <stop offset="26%" stop-color="#ECF2FB"/>
    <stop offset="55%" stop-color="#F6F9FC"/>
    <stop offset="100%" stop-color="#FBFBFB"/>
  </radialGradient>
  <filter id="cardShadow" x="-10%" y="-10%" width="120%" height="130%">
    <feDropShadow dx="0" dy="2" stdDeviation="2" flood-color="#101722" flood-opacity=".04"/>
    <feDropShadow dx="0" dy="14" stdDeviation="17" flood-color="#101722" flood-opacity=".07"/>
  </filter>
</defs>

<rect width="1600" height="900" fill="url(#aura)"/>
<rect x="64" y="64" width="1472" height="772" rx="32" fill="#FFFFFF" filter="url(#cardShadow)"/>

<g transform="translate(106 81) scale(.30)">
  <path fill="#101722" d="M37 115V68C37 46 55 28 76 28H153C159 28 162 32 162 38V113C162 135 145 151 124 151H115C111 151 108 148 108 144V130C108 126 111 123 115 123H123C129 123 132 119 132 113V63C132 59 129 56 125 56H79C72 56 67 61 67 68V113C67 116 65 117 62 117H39C38 117 37 116 37 115Z"/>
  <circle cx="87.5" cy="137.5" r="14.99" fill="#0071E3"/>
</g>

<text x="180" y="122" font-family="'Avenir Next','Inter',Arial,sans-serif" font-weight="600" font-size="22" fill="#101722" letter-spacing="-.3">Deep<tspan fill="#0071E3">Wheel</tspan></text>
<text x="1494" y="118" text-anchor="end" font-family="'Avenir Next','Inter',Arial,sans-serif" font-weight="600" font-size="13" fill="#5C626B" letter-spacing="2.6">AGENT SKILLS</text>
<line x1="106" y1="158" x2="1494" y2="158" stroke="#E1E6EE" stroke-width="1"/>
<text x="112" y="224" font-family="'Avenir Next','PingFang SC','Inter',-apple-system,sans-serif" font-weight="700" font-size="14" fill="#5C626B" letter-spacing="2.4">DEEPWHEEL · AGENT SKILL</text>
<text x="112" y="288" font-family="'Avenir Next','PingFang SC','Inter',-apple-system,sans-serif" font-weight="600" font-size="32" fill="#101722" letter-spacing="-.5">Skill 质量门禁</text>
<text x="112" y="390" font-family="'Avenir Next','PingFang SC','Inter',-apple-system,sans-serif" font-weight="600" font-size="68" fill="#101722" letter-spacing="-1.7"><tspan x="112" dy="0">以证据把关，</tspan><tspan x="112" dy="76">发布才可信。</tspan></text>
<line x1="112" y1="530" x2="358" y2="530" stroke="#E1E6EE" stroke-width="1.5"/>
<text x="112" y="578" font-family="'Avenir Next','PingFang SC','Inter',-apple-system,sans-serif" font-weight="400" font-size="27" fill="#42474F" letter-spacing="-.15"><tspan x="112" dy="0">在 Skill 发布前检查结构、行为、</tspan><tspan x="112" dy="42">安全与发布就绪度。</tspan></text>
<line x1="112" y1="688" x2="980" y2="688" stroke="#E1E6EE" stroke-width="1.5"/>
<text x="112" y="730" font-family="'Avenir Next','PingFang SC','Inter',-apple-system,sans-serif" font-weight="600" font-size="14" fill="#5C626B" letter-spacing="0.6">结构   ·   声明   ·   安全   ·   行为   ·   发布</text>
<text x="112" y="783" font-family="'Avenir Next','PingFang SC','Inter',-apple-system,sans-serif" font-weight="400" font-size="16" fill="#5C626B">输出有证据的判定和修复计划，不自动发布。</text>
<!-- Editorial material-package composition: one blue structural spine, no internal shadows. -->
<path d="M1030 310 H1362 L1418 366 V726 H1030 Z" fill="#F2F5F9" stroke="#E1E6EE" stroke-width="1.5"/>
<path d="M1362 310 V366 H1418" fill="none" stroke="#E1E6EE" stroke-width="1.5"/>
<path d="M1000 344 H1332 L1388 400 V750 H1000 Z" fill="#FFFFFF" stroke="#E1E6EE" stroke-width="1.5"/>
<path d="M1332 344 V400 H1388" fill="none" stroke="#E1E6EE" stroke-width="1.5"/>
<rect x="1038" y="250" width="394" height="462" rx="22" fill="#FFFFFF" stroke="#E1E6EE" stroke-width="1.5"/>
<path d="M1038 272 Q1038 250 1060 250 H1070 V712 H1060 Q1038 712 1038 690 Z" fill="#0071E3"/>
<text x="1110" y="302" font-family="'Avenir Next','PingFang SC','Inter',-apple-system,sans-serif" font-weight="700" font-size="13" fill="#5C626B" letter-spacing=".8">审计判定</text>
<text x="1110" y="354" font-family="'Avenir Next','PingFang SC','Inter',-apple-system,sans-serif" font-weight="600" font-size="30" fill="#101722" letter-spacing="-.4">质量记录</text>
<line x1="1110" y1="380" x2="1392" y2="380" stroke="#E1E6EE" stroke-width="1"/>
<text x="1110" y="420" font-family="'Avenir Next','PingFang SC','Inter',-apple-system,sans-serif" font-weight="700" font-size="12" fill="#5C626B" letter-spacing="1.4">结构</text>
<text x="1110" y="450" font-family="'Avenir Next','PingFang SC','Inter',-apple-system,sans-serif" font-weight="400" font-size="17" fill="#42474F">发布包与元数据</text>
<line x1="1110" y1="472" x2="1392" y2="472" stroke="#E1E6EE" stroke-width="1"/>
<text x="1110" y="510" font-family="'Avenir Next','PingFang SC','Inter',-apple-system,sans-serif" font-weight="700" font-size="12" fill="#5C626B" letter-spacing="1.4">安全</text>
<text x="1110" y="540" font-family="'Avenir Next','PingFang SC','Inter',-apple-system,sans-serif" font-weight="400" font-size="17" fill="#42474F">凭证形态与残留扫描</text>
<line x1="1110" y1="562" x2="1392" y2="562" stroke="#E1E6EE" stroke-width="1"/>
<text x="1110" y="600" font-family="'Avenir Next','PingFang SC','Inter',-apple-system,sans-serif" font-weight="700" font-size="12" fill="#5C626B" letter-spacing="1.4">证据</text>
<text x="1110" y="630" font-family="'Avenir Next','PingFang SC','Inter',-apple-system,sans-serif" font-weight="400" font-size="17" fill="#42474F">测试与评审已记录</text>
<text x="1110" y="674" font-family="'Avenir Next','PingFang SC','Inter',-apple-system,sans-serif" font-weight="600" font-size="13" fill="#101722" letter-spacing=".3">机器门禁：输出判定</text>
<circle cx="1388" cy="670" r="5" fill="#101722"/>
<text x="1216" y="756" text-anchor="middle" font-family="'Avenir Next','PingFang SC','Inter',-apple-system,sans-serif" font-weight="700" font-size="12" fill="#5C626B" letter-spacing="1.3">发布状态</text>
<text x="1216" y="785" text-anchor="middle" font-family="'Avenir Next','PingFang SC','Inter',-apple-system,sans-serif" font-weight="400" font-size="16" fill="#42474F">通过 / 警告 / 阻断</text>

</svg>
