<svg xmlns="http://www.w3.org/2000/svg" width="1600" height="900" viewBox="0 0 1600 900" role="img" aria-labelledby="title desc">
<title id="title">DeepWheel Skill 质量门禁 GitHub 中文介绍</title>
<desc id="desc">你做的 Skill，别人装上能一次跑通吗？只读核验让每个公开面都同步，并给出带证据、可照着改的清单。</desc>

<defs>
  <radialGradient id="aura" cx="100%" cy="0%" r="135%">
    <stop offset="0%" stop-color="#DFEAF7"/>
    <stop offset="26%" stop-color="#ECF2FB"/>
    <stop offset="55%" stop-color="#F6F9FC"/>
    <stop offset="100%" stop-color="#FBFBFB"/>
  </radialGradient>
  <filter id="cardShadow" x="-10%" y="-10%" width="120%" height="130%">
    <feDropShadow dx="0" dy="2" stdDeviation="2" flood-color="#101722" flood-opacity=".04"/>
    <feDropShadow dx="0" dy="14" stdDeviation="17" flood-color="#101722" flood-opacity=".07"/>
  </filter>
</defs>

<rect width="1600" height="900" fill="url(#aura)"/>
<rect x="64" y="64" width="1472" height="772" rx="32" fill="#FFFFFF" filter="url(#cardShadow)"/>

<g transform="translate(106 81) scale(.30)">
  <path fill="#101722" d="M37 115V68C37 46 55 28 76 28H153C159 28 162 32 162 38V113C162 135 145 151 124 151H115C111 151 108 148 108 144V130C108 126 111 123 115 123H123C129 123 132 119 132 113V63C132 59 129 56 125 56H79C72 56 67 61 67 68V113C67 116 65 117 62 117H39C38 117 37 116 37 115Z"/>
  <circle cx="87.5" cy="137.5" r="14.99" fill="#0071E3"/>
</g>

<text x="180" y="122" font-family="'Avenir Next','Inter',Arial,sans-serif" font-weight="600" font-size="22" fill="#101722" letter-spacing="-.3">Deep<tspan fill="#0071E3">Wheel</tspan></text>
<text x="1494" y="118" text-anchor="end" font-family="'Avenir Next','Inter',Arial,sans-serif" font-weight="600" font-size="13" fill="#5C626B" letter-spacing="2.6">AGENT SKILLS</text>
<line x1="106" y1="158" x2="1494" y2="158" stroke="#E1E6EE" stroke-width="1"/>

<text x="112" y="224" font-family="'Avenir Next','PingFang SC','Inter',-apple-system,sans-serif" font-weight="700" font-size="14" fill="#5C626B" letter-spacing="2.4">DEEPWHEEL · QUALITY GATE</text>
<text x="112" y="288" font-family="'Avenir Next','PingFang SC','Inter',-apple-system,sans-serif" font-weight="600" font-size="32" fill="#101722" letter-spacing="-.5">Skill 质量门禁</text>
<text x="112" y="360" font-family="'Avenir Next','PingFang SC','Inter',-apple-system,sans-serif" font-weight="600" font-size="46" fill="#101722" letter-spacing="-1"><tspan x="112" dy="0">你做的 Skill，</tspan><tspan x="112" dy="58">别人装上能一次跑通吗？</tspan></text>
<line x1="112" y1="472" x2="358" y2="472" stroke="#E1E6EE" stroke-width="1.5"/>
<text x="112" y="524" font-family="'Avenir Next','PingFang SC','Inter',-apple-system,sans-serif" font-weight="400" font-size="27" fill="#42474F" letter-spacing="-.15"><tspan x="112" dy="0">有把尺子了——从你动手那刻就陪你量起，</tspan><tspan x="112" dy="44">直到它够格公开，再递你一份照着就能改的清单。</tspan></text>
<line x1="112" y1="654" x2="980" y2="654" stroke="#E1E6EE" stroke-width="1.5"/>
<text x="112" y="702" font-family="'Avenir Next','PingFang SC','Inter',-apple-system,sans-serif" font-weight="600" font-size="15" fill="#5C626B" letter-spacing="0.6">给地图   ·   定视角   ·   全体检   ·   出清单</text>
<text x="112" y="756" font-family="'Avenir Next','PingFang SC','Inter',-apple-system,sans-serif" font-weight="400" font-size="16" fill="#5C626B">只读核验，让每个公开面都同步。每条判定带证据，改不改由你决定。</text>

<!-- Editorial material-package composition: one blue structural spine, no internal shadows. -->
<path d="M1030 310 H1362 L1418 366 V724 H1030 Z" fill="#F2F5F9" stroke="#E1E6EE" stroke-width="1.5"/>
<path d="M1362 310 V366 H1418" fill="none" stroke="#E1E6EE" stroke-width="1.5"/>
<path d="M1000 344 H1332 L1388 400 V736 H1000 Z" fill="#FFFFFF" stroke="#E1E6EE" stroke-width="1.5"/>
<path d="M1332 344 V400 H1388" fill="none" stroke="#E1E6EE" stroke-width="1.5"/>
<rect x="1038" y="250" width="394" height="462" rx="22" fill="#FFFFFF" stroke="#E1E6EE" stroke-width="1.5"/>
<path d="M1038 272 Q1038 250 1060 250 H1070 V712 H1060 Q1038 712 1038 690 Z" fill="#0071E3"/>

<text x="1110" y="302" font-family="'Avenir Next','PingFang SC','Inter',-apple-system,sans-serif" font-weight="700" font-size="13" fill="#5C626B" letter-spacing="1.6">SKILL 体检</text>
<text x="1110" y="352" font-family="'Avenir Next','PingFang SC','Inter',-apple-system,sans-serif" font-weight="600" font-size="30" fill="#101722" letter-spacing="-.4">体检结果</text>
<line x1="1110" y1="378" x2="1392" y2="378" stroke="#E1E6EE" stroke-width="1"/>

<text x="1110" y="420" font-family="'Avenir Next','PingFang SC','Inter',-apple-system,sans-serif" font-weight="600" font-size="17" fill="#101722">上手</text>
<text x="1392" y="420" text-anchor="end" font-family="'Avenir Next','PingFang SC','Inter',-apple-system,sans-serif" font-weight="400" font-size="16" fill="#42474F">装上顺手</text>
<line x1="1110" y1="448" x2="1392" y2="448" stroke="#E1E6EE" stroke-width="1"/>
<text x="1110" y="486" font-family="'Avenir Next','PingFang SC','Inter',-apple-system,sans-serif" font-weight="600" font-size="17" fill="#101722">token</text>
<text x="1392" y="486" text-anchor="end" font-family="'Avenir Next','PingFang SC','Inter',-apple-system,sans-serif" font-weight="400" font-size="16" fill="#42474F">用量可控</text>
<line x1="1110" y1="514" x2="1392" y2="514" stroke="#E1E6EE" stroke-width="1"/>
<text x="1110" y="552" font-family="'Avenir Next','PingFang SC','Inter',-apple-system,sans-serif" font-weight="600" font-size="17" fill="#101722">埋雷</text>
<text x="1392" y="552" text-anchor="end" font-family="'Avenir Next','PingFang SC','Inter',-apple-system,sans-serif" font-weight="400" font-size="16" fill="#42474F">已排查</text>
<line x1="1110" y1="580" x2="1392" y2="580" stroke="#E1E6EE" stroke-width="1"/>
<text x="1110" y="618" font-family="'Avenir Next','PingFang SC','Inter',-apple-system,sans-serif" font-weight="600" font-size="17" fill="#101722">公开面</text>
<text x="1392" y="618" text-anchor="end" font-family="'Avenir Next','PingFang SC','Inter',-apple-system,sans-serif" font-weight="400" font-size="16" fill="#42474F">已同步</text>

<line x1="1110" y1="648" x2="1392" y2="648" stroke="#E1E6EE" stroke-width="1"/>
<text x="1251" y="676" text-anchor="middle" font-family="'Avenir Next','PingFang SC','Inter',-apple-system,sans-serif" font-weight="700" font-size="12" fill="#5C626B" letter-spacing="1.6">判定</text>
<text x="1251" y="700" text-anchor="middle" font-family="'Avenir Next','PingFang SC','Inter',-apple-system,sans-serif" font-weight="600" font-size="16" fill="#101722">能发 / 待改 · 清单已排序</text>

</svg>
